PathFileType	4	(X/Y/Z)	Patient4_TMGait_0pt7_02_left_50.trc.trc
DataRate	CameraRate	NumFrames	NumMarkers	Units	OrigDataRate	OrigDataStartFrame	OrigNumFrames
88.050314465409	88.050314465409	6	33	mm	88.050314465409	36	       141
Frame#	Time	Sacral			L.Shoulder			Chest			R.Shoulder			Neck			R.ASIS			L.ASIS			R.Thigh.Superior			R.Thigh.Lateral			R.Thigh.Inferior			R.Patella			L.Thigh.Superior			L.Thigh.Lateral			L.Thigh.Inferior			L.Patella			L.Shank.Superior			L.Shank.Lateral			L.Shank.Inferior			R.Shank.Superior			R.Shank.Lateral			R.Shank.Inferior			R.Heel			R.Midfoot.Superior			R.Midfoot.Lateral			R.Toe			L.Heel			L.Midfoot.Lateral			L.Midfoot.Superior			L.Toe			L.Elbow			L.Wrist			R.Elbow			R.Wrist			
		X1	Y1	Z1	X2	Y2	Z2	X3	Y3	Z3	X4	Y4	Z4	X5	Y5	Z5	X6	Y6	Z6	X7	Y7	Z7	X8	Y8	Z8	X9	Y9	Z9	X10	Y10	Z10	X11	Y11	Z11	X12	Y12	Z12	X13	Y13	Z13	X14	Y14	Z14	X15	Y15	Z15	X16	Y16	Z16	X17	Y17	Z17	X18	Y18	Z18	X19	Y19	Z19	X20	Y20	Z20	X21	Y21	Z21	X22	Y22	Z22	X23	Y23	Z23	X24	Y24	Z24	X25	Y25	Z25	X26	Y26	Z26	X27	Y27	Z27	X28	Y28	Z28	X29	Y29	Z29	X30	Y30	Z30	X31	Y31	Z31	X32	Y32	Z32	X33	Y33	Z33	

36	57.667500000000	778.785761010921	1007.064185086586	467.761285744365	952.419020628160	1421.076138671007	277.132652722903	1069.506811197509	1348.495788030597	427.781168222481	1009.332906180816	1429.865246596264	607.836368963038	972.759887907920	1485.275066497454	430.575715317666	1002.695741935909	930.008811468779	580.148987456111	987.780647760713	949.882847202931	306.140713864538	1005.147590112331	717.084685536054	559.021759349561	901.233007983844	622.402727790419	618.073181120849	970.925392121841	553.235085577454	545.892477150608	948.523766537778	452.809510254642	559.616086607315	1060.517733288551	766.423693264497	343.967566477931	999.264900252742	637.470133128536	275.703899979324	1094.422896690389	573.995869512416	342.445859820888	1107.036259070448	503.415863947006	349.056203924912	1088.065943244275	428.755838118910	338.667834995279	1013.893558749104	305.553332648777	283.223485572768	1077.894551382213	199.634658733286	353.202380301959	878.824275113168	384.174439397410	562.602955564825	764.637425860515	326.023848868347	620.401555688513	763.797170727378	219.020831843164	563.483523148696	571.985927059160	111.015933252281	530.283287997516	750.800262063289	106.816250179864	570.383922873973	646.538825268853	71.988673470927	603.024778743850	844.955479333114	35.555950494449	592.994805602148	965.027318373389	38.498354247872	390.929026869303	1040.730193779072	36.086611690994	311.268138322203	1121.747199105679	98.128962215758	339.913602035339	1251.546374140292	48.576064657132	314.382544642544	829.498794897309	1085.408877784579	190.490364488626	791.529900628421	828.141600071951	205.423949851692	1097.826692926618	1099.714178324681	728.607928767795	1285.931860950333	1208.794091023695	610.646743015152	
37	57.678857142857	778.814229289984	1008.516382386868	465.234932289106	952.561860985421	1422.765927058075	274.874257988974	1069.402633187560	1350.212461299929	425.671940766557	1008.864464202640	1431.511204655646	605.645144981992	972.592599179926	1486.794961793111	428.292135236430	1002.514888133088	931.491746991962	577.444658022527	987.866219275087	951.564278214678	303.643012105921	1008.747983380662	718.987546552406	557.413191605570	907.083279592189	622.698354650546	616.953693439926	978.769478104564	554.201430687279	545.392146916299	957.315769194134	452.176048268724	560.786732919818	1059.398451491386	766.067669438923	340.804735126273	995.547589425619	637.509334583705	274.139736761471	1090.287660893048	573.183040255688	340.644815372008	1102.134190806699	502.837501412835	347.910131077392	1082.621317239799	428.389528113973	337.605673383305	1007.487648218364	305.586419337317	282.721985389223	1070.751234882470	199.442095916759	352.872407761178	885.214899719295	384.785607918764	563.450474347042	768.624889239670	330.802996343080	620.515710004269	765.088678798376	223.270414994230	564.721396090248	570.035341694840	123.279193928536	531.096372729649	748.159157175687	109.325221643952	571.663033204553	642.164950750300	79.591842591630	603.488535003811	837.376296889658	34.714122438676	592.992834404155	957.094830616894	38.425825652578	390.869904690255	1032.779620081000	36.041597579426	311.196610567745	1113.741433317368	98.173892038527	339.808262345579	1243.578082154199	48.759299642442	314.241161080692	836.509660884094	1084.370659401531	186.746386555295	808.669390560289	825.670989255030	200.424824535437	1086.653173563014	1098.829445444367	728.717155926945	1279.749485814209	1198.507897254896	610.493537661284	
38	57.690214285714	778.698469420483	1009.839928329841	462.746041443733	952.855531599181	1424.368254820755	272.637338739902	1069.271628033070	1351.788617324918	423.697170411603	1008.190383301895	1433.011245294780	603.526242343904	972.332998491467	1488.192479286078	426.048437673467	1002.167356950726	932.840304926378	574.895031411837	987.857986368194	953.065961160151	301.311953047190	1012.694308529467	721.012724654201	555.914324974878	913.521477457878	622.983658336793	615.965063420004	987.207229686069	555.323275504316	544.881617943511	966.747006504142	451.779987362099	561.717007395345	1057.944928878838	765.406825793416	337.731994475379	991.545845895546	637.472808831854	272.561103575034	1085.787071802959	572.280491576790	338.901923953770	1096.825186737107	502.167160183709	346.702060267837	1076.837608368531	427.959218574843	336.468985062096	1000.826955932850	305.495663430016	282.168318779084	1063.466256823700	199.209372932447	352.509445156118	892.398732415505	385.541994562598	564.141924773365	773.590198687578	335.830650053839	620.583461809503	767.214939859157	227.910388668919	565.873435105594	569.285275296424	136.596197029087	531.842871568004	746.086318821338	112.360021163949	572.893306748628	638.551051855422	88.230232139563	603.921856539214	829.907011880439	33.631055008067	593.105682819776	949.101963911244	38.345892188257	390.841685660711	1024.765172568089	35.961543737043	311.153202243471	1105.714043051884	98.144301200240	339.733462602331	1235.574681548179	48.777077189758	314.147178658496	843.388671380909	1083.575098360207	182.949578266183	826.580563328066	823.779852214684	195.366881287383	1074.899674308667	1098.057341910260	728.634142439552	1273.540420958950	1186.783650898920	610.702242651961	
39	57.701571428571	778.415578058569	1010.973664989951	460.320422197640	953.303648122702	1425.807345079406	270.435584627238	1069.108385508720	1353.152268295689	421.886508042994	1007.306125021095	1434.318042405132	601.498639558508	971.995061879567	1489.423470197872	423.855814949247	1001.642483823169	934.001753621815	572.532024764972	987.737677237647	954.362278516426	299.152413573479	1016.916105880670	723.168708684118	554.481396813078	920.495993016605	623.291573052144	615.090417427893	996.131400766603	556.637555400436	544.308787033683	976.735729550958	451.652031167466	562.331114528062	1056.195714659230	764.539770874656	334.838280998848	987.455787571963	637.430708776699	270.943911527229	1081.077259598180	571.359214648335	337.219273481807	1091.273441292161	501.444238676812	345.415562204263	1070.873486849227	427.479414232581	335.266983412861	994.077658415414	305.314493200666	281.503645185507	1056.120405111024	198.943583531015	352.105375833983	900.297724039971	386.461055496985	564.601274251336	779.493733973025	341.057338066602	620.560560057228	770.162543712047	232.914520373219	566.865329613559	569.819046277747	150.800109665631	532.457263893762	744.623141059081	115.970583290191	574.021080492643	635.805672308293	97.851278048457	604.282884549793	822.647148357337	32.352351379913	593.353500428662	941.072169250612	38.271413334361	390.822769122258	1016.712338742044	35.859550631924	311.118579674628	1097.688044340014	98.055411092505	339.671687495769	1227.559329954927	48.649466687850	314.088515790268	850.145263251062	1082.926913206626	179.096486995323	845.185083265092	822.482455139767	190.270881449348	1062.698077534065	1097.368027096297	728.300101107564	1267.215803970334	1173.623379977772	611.337765774798	
40	57.712928571429	777.949447792828	1011.878103554123	457.973981554457	953.886724071913	1427.027481491823	268.287118453204	1068.900957425514	1354.257609189941	420.262202805561	1006.212153886047	1435.403531662578	599.581402443556	971.595405663769	1490.461525701683	421.730433711975	1000.935605865929	934.949481910672	570.372403526692	987.493819656208	955.447948151867	297.155839333731	1021.319431124256	725.474916767471	553.062594659873	927.923897669260	623.675886470165	614.311293192786	1005.413652817079	558.195242312138	543.637482015119	987.193046603901	451.832135672930	562.602362409709	1054.203065408280	763.562659623118	332.172287707479	983.420785876987	637.425898763679	269.277659533059	1076.296555424503	570.466846921682	335.582687669993	1085.630135337329	500.698512010685	344.043916482373	1064.867060721669	426.961706515396	334.010452777273	987.366334206637	305.075114237692	280.701659987970	1048.780045389674	198.651503847163	351.655179513995	908.822108350499	387.571188655289	564.789675956658	786.266457529875	346.435475170258	620.415298672749	773.913844199926	238.245770723598	567.639883818566	571.686253580946	165.648636400751	532.872250067943	743.832067909098	120.169635637960	574.995093718525	634.038263864692	108.326052049363	604.526634633141	815.747623673240	30.983313557745	593.742743856067	933.027780881510	38.210771110867	390.796018794673	1008.644411760224	35.747506289846	311.077473997304	1089.679759117965	97.925978248704	339.606503472743	1219.550480876460	48.409404979491	314.050684908443	856.825185228728	1082.336685201079	175.184202433697	864.415422146645	821.791535342515	185.161047750379	1050.188458596549	1096.738506805114	727.664753530921	1260.668929199352	1159.036073107357	612.458931927636	
41	57.724285714286	777.290572703708	1012.538708567208	455.711934699773	954.566205056400	1427.995657900915	266.210648693118	1068.632667042778	1355.088288203827	418.836249400287	1004.912286589464	1436.260808990614	597.789944960798	971.150665381927	1491.297892961394	419.687917311168	1000.048132501408	935.683059961735	568.419538426781	987.124251499373	956.335672101369	295.308257703851	1025.796899481927	727.955889571902	551.606210498750	935.696167423039	624.203068849211	613.609220521085	1014.914485074203	560.054100957341	542.851756993736	998.025613359571	452.367022033351	562.550748335280	1052.031065418809	762.556671020578	329.740231854614	979.521538609161	637.474948195422	267.568230833349	1071.551652635259	569.626606981411	333.966920557000	1080.017479371479	499.949357971012	342.588715849533	1058.922873239120	426.414567581676	332.709587464502	980.769019061201	304.805696701485	279.767900861320	1041.492112915077	198.338599868131	351.156729723465	917.877567247621	388.907467367496	564.708437925963	793.816835294422	351.917729626080	620.130762497127	778.450700049991	243.851992730022	568.162098684711	574.895168015155	180.825235759593	533.028335184426	743.798060615565	124.925203693436	575.769770735528	633.355148166087	119.445593362881	604.610930367047	809.421179626705	29.688720116150	594.262892865648	924.986567780569	38.168322097230	390.750044108357	1000.579579731334	35.634981719277	311.019886878760	1081.698621986330	97.773960057658	339.525289864111	1211.560413309313	48.093077339955	314.019981968692	863.503429430047	1081.732240266522	171.212059884316	884.210303826809	821.723833818992	180.067555350104	1037.516394419728	1096.158700968241	726.691962005756	1253.772191792876	1143.045299919733	614.111604442429	
